<?xml version="1.0" standalone="no"?>
<!DOCTYPE svg PUBLIC "-//W3C//DTD SVG 20010904//EN"
 "http://www.w3.org/TR/2001/REC-SVG-20010904/DTD/svg10.dtd">
<svg version="1.0" xmlns="http://www.w3.org/2000/svg"
 width="512.000000pt" height="512.000000pt" viewBox="0 0 512.000000 512.000000"
 preserveAspectRatio="xMidYMid meet">
<metadata>
Created by potrace 1.11, written by Peter Selinger 2001-2013
</metadata>
<g transform="translate(0.000000,512.000000) scale(0.100000,-0.100000)"
fill="#000000" stroke="none">
<path d="M1186 4190 c-48 -10 -90 -21 -92 -23 -2 -2 30 -7 73 -11 70 -5 79 -4
100 16 23 21 30 39 16 37 -5 0 -48 -9 -97 -19z"/>
<path d="M1371 4175 c-18 -21 -29 -41 -24 -44 4 -4 34 -15 66 -25 45 -13 170
-68 239 -104 3 -2 25 24 47 57 49 71 58 78 79 58 14 -15 12 -23 -20 -87 l-35
-72 38 -25 c21 -14 42 -23 48 -21 12 4 121 137 121 148 0 16 -169 90 -261 115
-52 14 -132 28 -179 31 l-86 7 -33 -38z"/>
<path d="M983 4063 c-31 -6 -29 -16 6 -31 53 -23 164 -114 268 -220 l104 -105
27 24 c178 162 213 191 227 185 26 -10 16 -41 -25 -81 -25 -24 -38 -45 -35
-54 4 -10 -19 -39 -65 -82 l-71 -68 63 -84 c35 -46 87 -119 116 -161 l52 -76
31 22 c28 21 30 26 22 58 -4 19 -8 90 -8 157 l0 121 -36 6 c-40 6 -63 26 -57
50 2 9 32 35 68 59 36 24 65 50 65 57 0 34 -204 141 -345 183 -133 39 -123 40
-186 -9 -59 -46 -80 -55 -70 -29 4 11 -1 15 -19 15 -33 0 -32 10 7 42 l33 27
-75 -1 c-41 0 -85 -3 -97 -5z"/>
<path d="M2245 3990 c-190 -30 -336 -127 -404 -270 -23 -49 -26 -67 -26 -165
0 -99 3 -116 27 -169 67 -142 150 -214 383 -330 153 -77 242 -141 270 -197 8
-15 15 -48 15 -73 0 -37 -6 -52 -32 -82 -51 -58 -106 -78 -213 -77 -121 2
-220 29 -360 101 l-115 59 6 -32 c3 -17 20 -90 37 -161 l32 -129 130 -34 c112
-28 152 -34 285 -38 137 -5 166 -3 240 16 122 30 204 74 276 146 94 93 134
190 134 325 0 155 -60 277 -179 364 -27 20 -117 72 -201 116 -177 94 -223 124
-273 179 -31 34 -37 48 -37 85 0 53 31 96 94 128 80 41 227 19 377 -57 l49
-25 0 128 0 129 -72 21 c-40 12 -95 26 -122 32 -69 15 -251 21 -321 10z"/>
<path d="M872 3944 c-16 -30 -24 -99 -17 -138 l7 -36 27 18 c62 44 65 41 16
-18 -19 -23 -35 -53 -35 -67 0 -24 37 -180 46 -195 3 -5 17 1 31 12 37 29 41
17 8 -25 -15 -20 -25 -39 -22 -42 8 -7 138 65 255 139 l92 60 -30 42 c-46 62
-175 191 -227 227 -58 40 -136 52 -151 23z"/>
<path d="M2905 3948 c-11 -34 -84 -322 -82 -325 2 -1 38 11 82 28 84 33 232
57 278 46 l27 -7 0 -550 c0 -353 -4 -567 -11 -599 -6 -27 -24 -68 -40 -90
l-29 -41 296 0 c282 0 296 1 282 18 -9 9 -26 37 -39 62 l-24 45 -3 577 -3 576
51 7 c76 10 181 -11 231 -47 22 -16 42 -28 43 -26 2 2 17 71 35 153 18 83 35
158 38 168 4 16 -27 17 -562 17 -443 0 -567 -3 -570 -12z"/>
<path d="M4160 3951 c0 -5 7 -14 16 -22 8 -7 25 -31 37 -53 22 -41 22 -46 25
-654 2 -395 -1 -633 -8 -670 -6 -34 -22 -74 -40 -99 l-30 -43 297 0 296 0 -21
23 c-11 12 -29 40 -39 62 -17 37 -18 88 -21 660 -3 656 -1 690 43 757 14 21
25 40 25 43 0 3 -130 5 -290 5 -160 0 -290 -4 -290 -9z"/>
<path d="M746 3862 c-27 -53 -70 -196 -64 -213 2 -5 27 7 55 28 l52 38 -6 95
c-3 52 -7 97 -9 98 -1 2 -14 -19 -28 -46z"/>
<path d="M512 3587 c-40 -40 -72 -75 -72 -79 0 -16 69 0 101 25 31 23 37 35
42 75 3 26 4 48 3 49 -1 1 -34 -30 -74 -70z"/>
<path d="M752 3578 l-41 -53 25 -3 c36 -5 25 -23 -29 -51 l-47 -24 0 -58 0
-59 37 15 c31 13 143 90 143 98 0 11 -39 180 -43 183 -2 2 -23 -19 -45 -48z"/>
<path d="M1280 3537 c-25 -17 -106 -66 -181 -107 l-135 -76 14 -42 c13 -41 25
-51 37 -32 3 5 15 15 27 21 24 13 19 -1 -15 -38 -20 -22 -20 -23 -2 -70 10
-26 26 -65 37 -86 18 -37 19 -37 43 -21 27 18 35 5 10 -16 -16 -13 -20 -46 -7
-54 13 -8 391 189 441 230 9 8 -199 324 -213 324 -6 -1 -31 -15 -56 -33z"/>
<path d="M530 3319 l-35 -31 34 6 c42 7 43 9 39 35 -3 19 -5 18 -38 -10z"/>
<path d="M822 3296 c-22 -7 -52 -35 -87 -80 -49 -64 -52 -71 -44 -105 5 -20 9
-40 9 -45 0 -4 6 -6 14 -3 18 7 196 138 196 144 0 19 -37 103 -45 102 -5 0
-25 -6 -43 -13z"/>
<path d="M1735 3238 c-11 -6 -22 -12 -24 -14 -8 -7 154 -324 165 -324 13 0
154 91 154 100 0 3 -27 25 -61 50 -34 24 -94 79 -134 122 -40 43 -75 78 -77
78 -2 0 -12 -6 -23 -12z"/>
<path d="M428 3162 c-71 -21 -78 -28 -70 -73 l7 -37 69 64 c37 35 64 64 60 63
-5 0 -35 -8 -66 -17z"/>
<path d="M1485 3084 c-82 -48 -284 -155 -323 -170 -1 -1 0 -9 4 -18 8 -21 23
-20 54 4 39 31 44 23 11 -17 -17 -21 -31 -41 -31 -45 0 -3 16 -34 36 -67 l36
-60 56 41 c32 23 70 52 86 65 51 42 40 16 -33 -78 -56 -72 -69 -95 -60 -105 6
-8 18 -14 26 -14 20 0 282 126 305 147 10 9 18 29 18 44 0 15 11 41 25 57 14
17 25 37 25 45 0 19 -108 237 -118 237 -4 0 -56 -30 -117 -66z"/>
<path d="M842 3027 c-118 -149 -117 -164 10 -117 26 10 67 34 93 55 50 41 50
39 11 127 l-22 51 -92 -116z"/>
<path d="M496 2961 c-68 -68 -97 -104 -94 -117 7 -38 45 -20 132 63 79 74 86
84 80 110 -4 15 -10 31 -13 35 -4 4 -51 -37 -105 -91z"/>
<path d="M2093 2938 c-55 -30 -133 -82 -133 -89 0 -13 158 -75 237 -92 28 -6
33 8 33 87 l0 63 -49 26 -50 25 -38 -20z"/>
<path d="M978 2841 c-52 -20 -75 -36 -102 -70 l-34 -45 19 -38 c13 -25 24 -36
32 -31 41 24 197 147 197 155 0 12 -31 58 -39 57 -3 -1 -36 -13 -73 -28z"/>
<path d="M2307 2853 c-4 -3 -7 -26 -7 -50 0 -35 3 -43 18 -43 22 0 42 19 42
40 0 20 -44 63 -53 53z"/>
<path d="M609 2741 c-38 -9 -121 -86 -117 -108 2 -10 9 -18 16 -18 15 0 142
112 142 126 0 10 -2 10 -41 0z"/>
<path d="M1042 2644 c-69 -88 -81 -108 -72 -124 7 -13 16 -17 28 -13 26 10
182 133 182 145 0 8 -49 98 -53 98 -1 0 -39 -48 -85 -106z"/>
<path d="M1639 2669 c-36 -13 -182 -203 -174 -227 6 -19 50 -72 60 -72 8 0
157 115 177 137 14 15 16 26 8 54 -5 18 -14 53 -20 77 -12 45 -12 45 -51 31z"/>
<path d="M677 2552 c-70 -70 -76 -80 -64 -96 20 -27 44 -15 115 57 60 60 62
65 51 90 -7 15 -15 27 -18 27 -4 0 -41 -35 -84 -78z"/>
<path d="M1217 2477 c-42 -16 -69 -35 -94 -66 l-36 -43 21 -21 22 -21 79 78
c106 102 106 110 8 73z"/>
<path d="M1711 2371 c-17 -21 -31 -42 -31 -45 0 -4 23 5 50 19 53 27 58 33 38
53 -18 18 -24 15 -57 -27z"/>
<path d="M1315 2290 c-73 -74 -73 -72 -22 -101 22 -13 40 -2 101 59 l49 50
-24 31 c-13 16 -26 30 -29 30 -3 1 -37 -31 -75 -69z"/>
<path d="M780 2338 c-33 -9 -34 -11 -15 -24 25 -19 28 -18 55 11 26 27 18 30
-40 13z"/>
<path d="M971 2256 l-44 -45 27 -12 c25 -12 30 -10 64 24 l37 37 -21 20 -20
20 -43 -44z"/>
<path d="M2030 2275 c0 -10 -10 -15 -31 -15 -26 0 -50 -17 -130 -91 -55 -51
-98 -94 -95 -96 7 -8 205 92 274 137 34 23 62 47 62 55 0 7 -14 15 -31 19 -45
9 -49 8 -49 -9z"/>
<path d="M2996 2196 c-57 -21 -87 -47 -113 -96 -58 -110 1 -237 125 -270 61
-16 129 -4 149 27 9 13 14 25 12 28 -3 2 -26 -3 -52 -12 -108 -35 -197 31
-197 149 0 104 86 162 198 135 28 -8 32 -6 32 12 0 11 -4 23 -10 26 -23 14
-107 14 -144 1z"/>
<path d="M3600 2204 c-13 -4 -15 -34 -15 -189 l0 -185 29 0 c25 0 28 3 22 23
-3 12 -6 97 -6 190 0 92 -3 166 -7 166 -5 -1 -15 -3 -23 -5z"/>
<path d="M3740 2204 c-13 -4 -15 -34 -15 -189 l0 -185 29 0 c25 0 28 3 22 23
-3 12 -6 97 -6 190 0 92 -3 166 -7 166 -5 -1 -15 -3 -23 -5z"/>
<path d="M1535 2156 c-16 -7 -39 -23 -50 -36 -20 -22 -20 -22 0 -36 11 -7 25
-17 31 -22 6 -6 26 5 53 30 41 38 42 41 25 59 -20 22 -20 22 -59 5z"/>
<path d="M1165 2150 c-3 -5 1 -10 9 -10 9 0 16 5 16 10 0 6 -4 10 -9 10 -6 0
-13 -4 -16 -10z"/>
<path d="M3326 2090 c-93 -28 -127 -152 -60 -221 84 -87 228 -41 242 77 7 63
-17 107 -73 134 -44 21 -64 23 -109 10z m105 -59 c24 -24 29 -38 29 -76 0 -64
-33 -97 -92 -93 -35 2 -46 9 -65 37 -31 45 -30 92 3 130 35 42 84 43 125 2z"/>
<path d="M3920 2082 c-48 -23 -72 -73 -67 -136 4 -41 10 -55 39 -81 19 -18 51
-35 71 -39 43 -8 113 8 120 28 5 11 -6 13 -52 9 -53 -5 -60 -3 -89 23 -18 16
-33 40 -34 54 -3 25 -3 25 95 28 90 3 97 4 97 23 0 33 -28 78 -60 94 -38 20
-77 19 -120 -3z m104 -33 c46 -36 35 -49 -44 -49 -49 0 -70 4 -70 13 0 17 12
32 35 45 29 17 49 15 79 -9z"/>
<path d="M4233 2089 c-38 -11 -73 -52 -73 -87 0 -15 13 -37 35 -57 29 -28 32
-35 20 -45 -20 -16 -19 -36 1 -44 9 -3 41 -6 73 -6 65 0 101 -19 101 -55 0
-55 -102 -85 -170 -50 -23 12 -30 22 -30 45 0 34 -19 40 -44 14 -23 -22 -20
-40 10 -63 77 -61 223 -47 271 25 36 56 -25 114 -120 114 -56 0 -61 20 -9 31
42 9 81 35 94 65 10 20 8 29 -10 54 l-22 29 33 3 c19 2 33 9 35 18 2 12 -13
15 -80 16 -46 1 -97 -3 -115 -7z m76 -34 c45 -23 54 -62 21 -95 -55 -55 -155
22 -107 82 11 15 31 25 50 27 4 1 21 -6 36 -14z"/>
<path d="M4543 2085 c-45 -19 -73 -69 -73 -129 0 -43 4 -53 38 -86 23 -24 52
-41 73 -45 43 -8 115 9 122 29 5 12 -4 13 -49 9 -36 -4 -63 -1 -79 7 -26 14
-60 74 -50 90 3 6 49 10 101 10 104 0 106 2 80 65 -25 58 -95 80 -163 50z
m102 -40 c39 -38 32 -45 -45 -45 -49 0 -70 4 -70 13 0 17 12 32 35 45 31 18
54 14 80 -13z"/>
<path d="M1390 2025 c-11 -13 -6 -15 36 -15 65 0 88 15 37 23 -54 9 -59 9 -73
-8z"/>
<path d="M280 1035 l0 -375 2240 0 2240 0 -2 373 -3 372 -2237 3 -2238 2 0
-375z m341 76 c79 -88 147 -160 152 -160 4 -1 7 69 7 154 l0 155 25 0 25 0 0
-221 c0 -121 -4 -219 -9 -217 -4 2 -50 48 -101 103 -52 55 -115 124 -142 153
-27 28 -51 52 -54 52 -2 0 -4 -67 -4 -150 l0 -150 -30 0 -30 0 0 220 c0 123 4
220 9 220 5 0 74 -72 152 -159z m686 136 c43 -22 93 -75 109 -114 20 -46 17
-140 -5 -188 -20 -45 -69 -91 -118 -112 -75 -31 -215 -3 -265 53 -55 63 -73
175 -39 250 21 46 82 102 132 121 43 16 145 11 186 -10z m842 -35 c14 -31 55
-126 93 -211 37 -85 68 -158 68 -163 0 -5 -14 -8 -31 -6 -27 3 -34 9 -51 53
-29 73 -31 75 -115 75 l-74 0 -29 -65 c-27 -59 -32 -65 -60 -65 -16 0 -30 2
-30 4 0 2 11 28 24 57 79 177 150 337 157 357 13 33 22 27 48 -36z m1127 35
c23 -12 33 -25 36 -47 6 -41 -3 -44 -42 -15 -89 66 -215 26 -256 -81 -56 -148
96 -286 236 -214 21 11 42 24 45 30 12 20 22 0 16 -32 -10 -47 -47 -63 -148
-63 -74 0 -85 3 -125 30 -79 55 -115 160 -87 258 13 49 72 115 124 139 48 23
153 20 201 -5z m1241 -10 c22 -22 24 -28 13 -41 -17 -21 -33 -20 -55 4 -22 24
-77 27 -95 5 -16 -19 -16 -61 0 -80 7 -8 39 -27 72 -42 96 -43 131 -102 106
-178 -18 -53 -66 -85 -129 -85 -62 0 -95 15 -121 58 -21 34 -21 35 -3 48 27
20 38 17 60 -19 17 -26 28 -33 62 -35 34 -3 44 1 62 24 39 50 20 94 -58 130
-31 15 -68 35 -83 46 -58 40 -55 142 5 179 46 29 128 22 164 -14z m-2896 -102
c73 -187 76 -194 84 -170 3 11 30 81 59 155 51 133 53 135 85 138 18 2 32 -1
30 -6 -42 -112 -176 -432 -182 -432 -4 0 -12 10 -16 23 -5 12 -44 105 -85 207
-42 102 -76 191 -76 198 0 9 10 12 27 10 25 -3 32 -14 74 -123z m849 -65 l0
-190 80 0 c79 0 80 0 80 -25 l0 -25 -110 0 -110 0 0 215 0 215 30 0 30 0 0
-190z m330 -25 l0 -215 -25 0 -25 0 0 215 0 215 25 0 25 0 0 -215z m710 135
l0 -80 110 0 110 0 0 80 0 80 30 0 30 0 0 -215 0 -215 -30 0 -30 0 0 105 0
106 -107 -3 -108 -3 -3 -102 -3 -103 -29 0 -30 0 0 208 c0 115 3 212 7 215 3
4 17 7 30 7 22 0 23 -3 23 -80z m670 55 c0 -25 -1 -25 -83 -25 -46 0 -86 -2
-88 -4 -2 -2 -2 -29 -1 -60 l4 -56 84 0 c83 0 84 0 84 -25 0 -24 -2 -24 -86
-27 l-86 -3 0 -75 0 -75 86 -3 c84 -3 86 -3 86 -27 l0 -25 -115 0 -115 0 0
215 0 215 115 0 115 0 0 -25z"/>
<path d="M1130 1198 c-103 -53 -131 -181 -57 -265 79 -90 213 -80 272 21 55
94 20 201 -80 247 -53 24 -82 24 -135 -3z"/>
<path d="M2091 1096 c-39 -89 -39 -86 23 -86 31 0 56 4 56 9 0 12 -49 121 -54
121 -3 0 -14 -20 -25 -44z"/>
</g>
</svg>
